0
SECTION
2
ENTITIES
0
LINE
8
boundary
10
0.000000
20
0.000000
30
0.000000
11
0.000000
21
0.000000
31
0.000000
0
LINE
8
boundary
10
0.000000
20
0.000000
30
0.000000
11
0.000000
21
0.000000
31
0.000000
0
LINE
8
boundary
10
0.000000
20
0.000000
30
0.000000
11
0.000000
21
0.000000
31
0.000000
0
LINE
8
boundary
10
0.000000
20
0.000000
30
0.000000
11
0.000000
21
0.000000
31
0.000000
0
LINE
8
boundary
10
0.000000
20
0.000000
30
0.000000
11
0.000000
21
0.000000
31
0.000000
0
LINE
8
boundary
10
0.000000
20
0.000000
30
0.000000
11
0.000000
21
0.000000
31
0.000000
0
LINE
8
boundary
10
0.000000
20
0.000000
30
0.000000
11
0.000000
21
0.000000
31
0.000000
0
LINE
8
boundary
10
0.000000
20
0.000000
30
0.000000
11
0.000000
21
0.000000
31
0.000000
0
LINE
8
boundary
10
0.000000
20
0.000000
30
0.000000
11
0.000000
21
0.000000
31
0.000000
0
LINE
8
boundary
10
0.000000
20
0.000000
30
0.000000
11
0.000000
21
0.000000
31
0.000000
0
LINE
8
boundary
10
0.000000
20
0.000000
30
0.000000
11
0.000000
21
0.000000
31
0.000000
0
LINE
8
boundary
10
0.000000
20
0.000000
30
0.000000
11
0.000000
21
0.000000
31
0.000000
0
LINE
8
boundary
10
0.000000
20
0.000000
30
0.000000
11
0.000000
21
0.000000
31
0.000000
0
LINE
8
boundary
10
0.000000
20
0.000000
30
0.000000
11
0.000000
21
0.000000
31
0.000000
0
LINE
8
boundary
10
0.000000
20
0.000000
30
0.000000
11
0.000000
21
0.000000
31
0.000000
0
LINE
8
boundary
10
0.000000
20
0.000000
30
0.000000
11
0.000000
21
0.000000
31
0.000000
0
LINE
8
boundary
10
0.000000
20
0.000000
30
0.000000
11
0.000000
21
0.000000
31
0.000000
0
LINE
8
boundary
10
0.000000
20
0.000000
30
0.000000
11
0.000000
21
0.000000
31
0.000000
0
LINE
8
boundary
10
0.000000
20
0.000000
30
0.000000
11
0.000000
21
0.000000
31
0.000000
0
LINE
8
boundary
10
0.000000
20
0.000000
30
0.000000
11
0.000000
21
0.000000
31
0.000000
0
LINE
8
boundary
10
0.000000
20
0.000000
30
0.000000
11
0.000000
21
0.000000
31
0.000000
0
LINE
8
boundary
10
0.000000
20
0.000000
30
0.000000
11
0.000000
21
0.000000
31
0.000000
0
LINE
8
boundary
10
0.000000
20
0.000000
30
0.000000
11
0.000000
21
0.000000
31
0.000000
0
LINE
8
boundary
10
0.000000
20
0.000000
30
0.000000
11
0.000000
21
0.000000
31
0.000000
0
LINE
8
boundary
10
0.000000
20
0.000000
30
0.000000
11
0.000000
21
0.000000
31
0.000000
0
LINE
8
boundary
10
0.000000
20
0.000000
30
0.000000
11
0.000000
21
0.000000
31
0.000000
0
LINE
8
boundary
10
0.000000
20
0.000000
30
0.000000
11
0.000000
21
0.000000
31
0.000000
0
LINE
8
boundary
10
0.000000
20
0.000000
30
0.000000
11
0.000000
21
0.000000
31
0.000000
0
LINE
8
delaunay
10
0.000000
20
0.000000
30
0.000000
11
0.000000
21
0.000000
31
0.000000
0
LINE
8
delaunay
10
0.000000
20
0.000000
30
0.000000
11
0.000000
21
0.000000
31
0.000000
0
LINE
8
delaunay
10
0.000000
20
0.000000
30
0.000000
11
0.000000
21
0.000000
31
0.000000
0
LINE
8
delaunay
10
0.000000
20
0.000000
30
0.000000
11
0.000000
21
0.000000
31
0.000000
0
LINE
8
delaunay
10
0.000000
20
0.000000
30
0.000000
11
0.000000
21
0.000000
31
0.000000
0
LINE
8
delaunay
10
0.000000
20
0.000000
30
0.000000
11
0.000000
21
0.000000
31
0.000000
0
LINE
8
delaunay
10
0.000000
20
0.000000
30
0.000000
11
0.000000
21
0.000000
31
0.000000
0
LINE
8
delaunay
10
0.000000
20
0.000000
30
0.000000
11
0.000000
21
0.000000
31
0.000000
0
LINE
8
delaunay
10
0.000000
20
0.000000
30
0.000000
11
0.000000
21
0.000000
31
0.000000
0
LINE
8
delaunay
10
0.000000
20
0.000000
30
0.000000
11
0.000000
21
0.000000
31
0.000000
0
LINE
8
delaunay
10
0.000000
20
0.000000
30
0.000000
11
0.000000
21
0.000000
31
0.000000
0
LINE
8
delaunay
10
0.000000
20
0.000000
30
0.000000
11
0.000000
21
0.000000
31
0.000000
0
LINE
8
delaunay
10
0.000000
20
0.000000
30
0.000000
11
0.000000
21
0.000000
31
0.000000
0
LINE
8
delaunay
10
0.000000
20
0.000000
30
0.000000
11
0.000000
21
0.000000
31
0.000000
0
LINE
8
delaunay
10
0.000000
20
0.000000
30
0.000000
11
0.000000
21
0.000000
31
0.000000
0
LINE
8
delaunay
10
0.000000
20
0.000000
30
0.000000
11
0.000000
21
0.000000
31
0.000000
0
LINE
8
delaunay
10
0.000000
20
0.000000
30
0.000000
11
0.000000
21
0.000000
31
0.000000
0
LINE
8
delaunay
10
0.000000
20
0.000000
30
0.000000
11
0.000000
21
0.000000
31
0.000000
0
LINE
8
delaunay
10
0.000000
20
0.000000
30
0.000000
11
0.000000
21
0.000000
31
0.000000
0
LINE
8
delaunay
10
0.000000
20
0.000000
30
0.000000
11
0.000000
21
0.000000
31
0.000000
0
LINE
8
delaunay
10
0.000000
20
0.000000
30
0.000000
11
0.000000
21
0.000000
31
0.000000
0
LINE
8
delaunay
10
0.000000
20
0.000000
30
0.000000
11
0.000000
21
0.000000
31
0.000000
0
LINE
8
delaunay
10
0.000000
20
0.000000
30
0.000000
11
0.000000
21
0.000000
31
0.000000
0
LINE
8
delaunay
10
0.000000
20
0.000000
30
0.000000
11
0.000000
21
0.000000
31
0.000000
0
LINE
8
delaunay
10
0.000000
20
0.000000
30
0.000000
11
0.000000
21
0.000000
31
0.000000
0
LINE
8
delaunay
10
0.000000
20
0.000000
30
0.000000
11
0.000000
21
0.000000
31
0.000000
0
LINE
8
delaunay
10
0.000000
20
0.000000
30
0.000000
11
0.000000
21
0.000000
31
0.000000
0
LINE
8
delaunay
10
0.000000
20
0.000000
30
0.000000
11
0.000000
21
0.000000
31
0.000000
0
LINE
8
delaunay
10
0.000000
20
0.000000
30
0.000000
11
0.000000
21
0.000000
31
0.000000
0
LINE
8
delaunay
10
0.000000
20
0.000000
30
0.000000
11
0.000000
21
0.000000
31
0.000000
0
LINE
8
delaunay
10
0.000000
20
0.000000
30
0.000000
11
0.000000
21
0.000000
31
0.000000
0
LINE
8
delaunay
10
0.000000
20
0.000000
30
0.000000
11
0.000000
21
0.000000
31
0.000000
0
LINE
8
delaunay
10
0.000000
20
0.000000
30
0.000000
11
0.000000
21
0.000000
31
0.000000
0
LINE
8
delaunay
10
0.000000
20
0.000000
30
0.000000
11
0.000000
21
0.000000
31
0.000000
0
LINE
8
delaunay
10
0.000000
20
0.000000
30
0.000000
11
0.000000
21
0.000000
31
0.000000
0
LINE
8
delaunay
10
0.000000
20
0.000000
30
0.000000
11
0.000000
21
0.000000
31
0.000000
0
LINE
8
delaunay
10
0.000000
20
0.000000
30
0.000000
11
0.000000
21
0.000000
31
0.000000
0
LINE
8
delaunay
10
0.000000
20
0.000000
30
0.000000
11
0.000000
21
0.000000
31
0.000000
0
LINE
8
delaunay
10
0.000000
20
0.000000
30
0.000000
11
0.000000
21
0.000000
31
0.000000
0
LINE
8
delaunay
10
0.000000
20
0.000000
30
0.000000
11
0.000000
21
0.000000
31
0.000000
0
LINE
8
delaunay
10
0.000000
20
0.000000
30
0.000000
11
0.000000
21
0.000000
31
0.000000
0
LINE
8
delaunay
10
0.000000
20
0.000000
30
0.000000
11
0.000000
21
0.000000
31
0.000000
0
LINE
8
delaunay
10
0.000000
20
0.000000
30
0.000000
11
0.000000
21
0.000000
31
0.000000
0
LINE
8
delaunay
10
0.000000
20
0.000000
30
0.000000
11
0.000000
21
0.000000
31
0.000000
0
LINE
8
delaunay
10
0.000000
20
0.000000
30
0.000000
11
0.000000
21
0.000000
31
0.000000
0
LINE
8
delaunay
10
0.000000
20
0.000000
30
0.000000
11
0.000000
21
0.000000
31
0.000000
0
LINE
8
delaunay
10
0.000000
20
0.000000
30
0.000000
11
0.000000
21
0.000000
31
0.000000
0
LINE
8
delaunay
10
0.000000
20
0.000000
30
0.000000
11
0.000000
21
0.000000
31
0.000000
0
LINE
8
delaunay
10
0.000000
20
0.000000
30
0.000000
11
0.000000
21
0.000000
31
0.000000
0
LINE
8
delaunay
10
0.000000
20
0.000000
30
0.000000
11
0.000000
21
0.000000
31
0.000000
0
LINE
8
delaunay
10
0.000000
20
0.000000
30
0.000000
11
0.000000
21
0.000000
31
0.000000
0
LINE
8
delaunay
10
0.000000
20
0.000000
30
0.000000
11
0.000000
21
0.000000
31
0.000000
0
LINE
8
delaunay
10
0.000000
20
0.000000
30
0.000000
11
0.000000
21
0.000000
31
0.000000
0
LINE
8
delaunay
10
0.000000
20
0.000000
30
0.000000
11
0.000000
21
0.000000
31
0.000000
0
LINE
8
delaunay
10
0.000000
20
0.000000
30
0.000000
11
0.000000
21
0.000000
31
0.000000
0
LINE
8
delaunay
10
0.000000
20
0.000000
30
0.000000
11
0.000000
21
0.000000
31
0.000000
0
LINE
8
delaunay
10
0.000000
20
0.000000
30
0.000000
11
0.000000
21
0.000000
31
0.000000
0
LINE
8
delaunay
10
0.000000
20
0.000000
30
0.000000
11
0.000000
21
0.000000
31
0.000000
0
LINE
8
delaunay
10
0.000000
20
0.000000
30
0.000000
11
0.000000
21
0.000000
31
0.000000
0
LINE
8
delaunay
10
0.000000
20
0.000000
30
0.000000
11
0.000000
21
0.000000
31
0.000000
0
LINE
8
delaunay
10
0.000000
20
0.000000
30
0.000000
11
0.000000
21
0.000000
31
0.000000
0
LINE
8
delaunay
10
0.000000
20
0.000000
30
0.000000
11
0.000000
21
0.000000
31
0.000000
0
LINE
8
delaunay
10
0.000000
20
0.000000
30
0.000000
11
0.000000
21
0.000000
31
0.000000
0
LINE
8
delaunay
10
0.000000
20
0.000000
30
0.000000
11
0.000000
21
0.000000
31
0.000000
0
LINE
8
delaunay
10
0.000000
20
0.000000
30
0.000000
11
0.000000
21
0.000000
31
0.000000
0
LINE
8
delaunay
10
0.000000
20
0.000000
30
0.000000
11
0.000000
21
0.000000
31
0.000000
0
LINE
8
delaunay
10
0.000000
20
0.000000
30
0.000000
11
0.000000
21
0.000000
31
0.000000
0
LINE
8
delaunay
10
0.000000
20
0.000000
30
0.000000
11
0.000000
21
0.000000
31
0.000000
0
LINE
8
delaunay
10
0.000000
20
0.000000
30
0.000000
11
0.000000
21
0.000000
31
0.000000
0
LINE
8
delaunay
10
0.000000
20
0.000000
30
0.000000
11
0.000000
21
0.000000
31
0.000000
0
LINE
8
delaunay
10
0.000000
20
0.000000
30
0.000000
11
0.000000
21
0.000000
31
0.000000
0
LINE
8
delaunay
10
0.000000
20
0.000000
30
0.000000
11
0.000000
21
0.000000
31
0.000000
0
LINE
8
delaunay
10
0.000000
20
0.000000
30
0.000000
11
0.000000
21
0.000000
31
0.000000
0
LINE
8
delaunay
10
0.000000
20
0.000000
30
0.000000
11
0.000000
21
0.000000
31
0.000000
0
LINE
8
delaunay
10
0.000000
20
0.000000
30
0.000000
11
0.000000
21
0.000000
31
0.000000
0
LINE
8
delaunay
10
0.000000
20
0.000000
30
0.000000
11
0.000000
21
0.000000
31
0.000000
0
LINE
8
delaunay
10
0.000000
20
0.000000
30
0.000000
11
0.000000
21
0.000000
31
0.000000
0
LINE
8
delaunay
10
0.000000
20
0.000000
30
0.000000
11
0.000000
21
0.000000
31
0.000000
0
LINE
8
delaunay
10
0.000000
20
0.000000
30
0.000000
11
0.000000
21
0.000000
31
0.000000
0
LINE
8
delaunay
10
0.000000
20
0.000000
30
0.000000
11
0.000000
21
0.000000
31
0.000000
0
LINE
8
delaunay
10
0.000000
20
0.000000
30
0.000000
11
0.000000
21
0.000000
31
0.000000
0
LINE
8
delaunay
10
0.000000
20
0.000000
30
0.000000
11
0.000000
21
0.000000
31
0.000000
0
LINE
8
delaunay
10
0.000000
20
0.000000
30
0.000000
11
0.000000
21
0.000000
31
0.000000
0
LINE
8
delaunay
10
0.000000
20
0.000000
30
0.000000
11
0.000000
21
0.000000
31
0.000000
0
LINE
8
delaunay
10
0.000000
20
0.000000
30
0.000000
11
0.000000
21
0.000000
31
0.000000
0
LINE
8
delaunay
10
0.000000
20
0.000000
30
0.000000
11
0.000000
21
0.000000
31
0.000000
0
LINE
8
delaunay
10
0.000000
20
0.000000
30
0.000000
11
0.000000
21
0.000000
31
0.000000
0
LINE
8
delaunay
10
0.000000
20
0.000000
30
0.000000
11
0.000000
21
0.000000
31
0.000000
0
LINE
8
delaunay
10
0.000000
20
0.000000
30
0.000000
11
0.000000
21
0.000000
31
0.000000
0
LINE
8
delaunay
10
0.000000
20
0.000000
30
0.000000
11
0.000000
21
0.000000
31
0.000000
0
LINE
8
delaunay
10
0.000000
20
0.000000
30
0.000000
11
0.000000
21
0.000000
31
0.000000
0
LINE
8
delaunay
10
0.000000
20
0.000000
30
0.000000
11
0.000000
21
0.000000
31
0.000000
0
LINE
8
delaunay
10
0.000000
20
0.000000
30
0.000000
11
0.000000
21
0.000000
31
0.000000
0
LINE
8
delaunay
10
0.000000
20
0.000000
30
0.000000
11
0.000000
21
0.000000
31
0.000000
0
LINE
8
delaunay
10
0.000000
20
0.000000
30
0.000000
11
0.000000
21
0.000000
31
0.000000
0
LINE
8
delaunay
10
0.000000
20
0.000000
30
0.000000
11
0.000000
21
0.000000
31
0.000000
0
LINE
8
delaunay
10
0.000000
20
0.000000
30
0.000000
11
0.000000
21
0.000000
31
0.000000
0
LINE
8
delaunay
10
0.000000
20
0.000000
30
0.000000
11
0.000000
21
0.000000
31
0.000000
0
LINE
8
delaunay
10
0.000000
20
0.000000
30
0.000000
11
0.000000
21
0.000000
31
0.000000
0
LINE
8
delaunay
10
0.000000
20
0.000000
30
0.000000
11
0.000000
21
0.000000
31
0.000000
0
LINE
8
delaunay
10
0.000000
20
0.000000
30
0.000000
11
0.000000
21
0.000000
31
0.000000
0
LINE
8
delaunay
10
0.000000
20
0.000000
30
0.000000
11
0.000000
21
0.000000
31
0.000000
0
LINE
8
delaunay
10
0.000000
20
0.000000
30
0.000000
11
0.000000
21
0.000000
31
0.000000
0
LINE
8
delaunay
10
0.000000
20
0.000000
30
0.000000
11
0.000000
21
0.000000
31
0.000000
0
LINE
8
delaunay
10
0.000000
20
0.000000
30
0.000000
11
0.000000
21
0.000000
31
0.000000
0
LINE
8
delaunay
10
0.000000
20
0.000000
30
0.000000
11
0.000000
21
0.000000
31
0.000000
0
LINE
8
delaunay
10
0.000000
20
0.000000
30
0.000000
11
0.000000
21
0.000000
31
0.000000
0
LINE
8
delaunay
10
0.000000
20
0.000000
30
0.000000
11
0.000000
21
0.000000
31
0.000000
0
LINE
8
delaunay
10
0.000000
20
0.000000
30
0.000000
11
0.000000
21
0.000000
31
0.000000
0
LINE
8
delaunay
10
0.000000
20
0.000000
30
0.000000
11
0.000000
21
0.000000
31
0.000000
0
LINE
8
delaunay
10
0.000000
20
0.000000
30
0.000000
11
0.000000
21
0.000000
31
0.000000
0
LINE
8
delaunay
10
0.000000
20
0.000000
30
0.000000
11
0.000000
21
0.000000
31
0.000000
0
LINE
8
delaunay
10
0.000000
20
0.000000
30
0.000000
11
0.000000
21
0.000000
31
0.000000
0
LINE
8
delaunay
10
0.000000
20
0.000000
30
0.000000
11
0.000000
21
0.000000
31
0.000000
0
LINE
8
delaunay
10
0.000000
20
0.000000
30
0.000000
11
0.000000
21
0.000000
31
0.000000
0
LINE
8
delaunay
10
0.000000
20
0.000000
30
0.000000
11
0.000000
21
0.000000
31
0.000000
0
LINE
8
delaunay
10
0.000000
20
0.000000
30
0.000000
11
0.000000
21
0.000000
31
0.000000
0
LINE
8
delaunay
10
0.000000
20
0.000000
30
0.000000
11
0.000000
21
0.000000
31
0.000000
0
LINE
8
delaunay
10
0.000000
20
0.000000
30
0.000000
11
0.000000
21
0.000000
31
0.000000
0
LINE
8
delaunay
10
0.000000
20
0.000000
30
0.000000
11
0.000000
21
0.000000
31
0.000000
0
LINE
8
delaunay
10
0.000000
20
0.000000
30
0.000000
11
0.000000
21
0.000000
31
0.000000
0
LINE
8
delaunay
10
0.000000
20
0.000000
30
0.000000
11
0.000000
21
0.000000
31
0.000000
0
LINE
8
delaunay
10
0.000000
20
0.000000
30
0.000000
11
0.000000
21
0.000000
31
0.000000
0
LINE
8
delaunay
10
0.000000
20
0.000000
30
0.000000
11
0.000000
21
0.000000
31
0.000000
0
LINE
8
delaunay
10
0.000000
20
0.000000
30
0.000000
11
0.000000
21
0.000000
31
0.000000
0
LINE
8
delaunay
10
0.000000
20
0.000000
30
0.000000
11
0.000000
21
0.000000
31
0.000000
0
LINE
8
delaunay
10
0.000000
20
0.000000
30
0.000000
11
0.000000
21
0.000000
31
0.000000
0
LINE
8
delaunay
10
0.000000
20
0.000000
30
0.000000
11
0.000000
21
0.000000
31
0.000000
0
LINE
8
delaunay
10
0.000000
20
0.000000
30
0.000000
11
0.000000
21
0.000000
31
0.000000
0
LINE
8
delaunay
10
0.000000
20
0.000000
30
0.000000
11
0.000000
21
0.000000
31
0.000000
0
LINE
8
delaunay
10
0.000000
20
0.000000
30
0.000000
11
0.000000
21
0.000000
31
0.000000
0
LINE
8
delaunay
10
0.000000
20
0.000000
30
0.000000
11
0.000000
21
0.000000
31
0.000000
0
LINE
8
delaunay
10
0.000000
20
0.000000
30
0.000000
11
0.000000
21
0.000000
31
0.000000
0
LINE
8
delaunay
10
0.000000
20
0.000000
30
0.000000
11
0.000000
21
0.000000
31
0.000000
0
LINE
8
delaunay
10
0.000000
20
0.000000
30
0.000000
11
0.000000
21
0.000000
31
0.000000
0
LINE
8
delaunay
10
0.000000
20
0.000000
30
0.000000
11
0.000000
21
0.000000
31
0.000000
0
LINE
8
delaunay
10
0.000000
20
0.000000
30
0.000000
11
0.000000
21
0.000000
31
0.000000
0
LINE
8
delaunay
10
0.000000
20
0.000000
30
0.000000
11
0.000000
21
0.000000
31
0.000000
0
LINE
8
delaunay
10
0.000000
20
0.000000
30
0.000000
11
0.000000
21
0.000000
31
0.000000
0
LINE
8
delaunay
10
0.000000
20
0.000000
30
0.000000
11
0.000000
21
0.000000
31
0.000000
0
LINE
8
delaunay
10
0.000000
20
0.000000
30
0.000000
11
0.000000
21
0.000000
31
0.000000
0
LINE
8
delaunay
10
0.000000
20
0.000000
30
0.000000
11
0.000000
21
0.000000
31
0.000000
0
LINE
8
delaunay
10
0.000000
20
0.000000
30
0.000000
11
0.000000
21
0.000000
31
0.000000
0
LINE
8
delaunay
10
0.000000
20
0.000000
30
0.000000
11
0.000000
21
0.000000
31
0.000000
0
LINE
8
delaunay
10
0.000000
20
0.000000
30
0.000000
11
0.000000
21
0.000000
31
0.000000
0
LINE
8
voronoi
10
0.000000
20
0.000000
30
0.000000
11
0.000000
21
0.000000
31
0.000000
0
LINE
8
voronoi
10
0.000000
20
0.000000
30
0.000000
11
0.000000
21
0.000000
31
0.000000
0
LINE
8
voronoi
10
0.000000
20
0.000000
30
0.000000
11
0.000000
21
0.000000
31
0.000000
0
LINE
8
voronoi
10
0.000000
20
0.000000
30
0.000000
11
0.000000
21
0.000000
31
0.000000
0
LINE
8
voronoi
10
0.000000
20
0.000000
30
0.000000
11
0.000000
21
0.000000
31
0.000000
0
LINE
8
voronoi
10
0.000000
20
0.000000
30
0.000000
11
0.000000
21
0.000000
31
0.000000
0
LINE
8
voronoi
10
0.000000
20
0.000000
30
0.000000
11
0.000000
21
0.000000
31
0.000000
0
LINE
8
voronoi
10
0.000000
20
0.000000
30
0.000000
11
0.000000
21
0.000000
31
0.000000
0
LINE
8
voronoi
10
0.000000
20
0.000000
30
0.000000
11
0.000000
21
0.000000
31
0.000000
0
LINE
8
voronoi
10
0.000000
20
0.000000
30
0.000000
11
0.000000
21
0.000000
31
0.000000
0
LINE
8
voronoi
10
0.000000
20
0.000000
30
0.000000
11
0.000000
21
0.000000
31
0.000000
0
LINE
8
voronoi
10
0.000000
20
0.000000
30
0.000000
11
0.000000
21
0.000000
31
0.000000
0
LINE
8
voronoi
10
0.000000
20
0.000000
30
0.000000
11
0.000000
21
0.000000
31
0.000000
0
LINE
8
voronoi
10
0.000000
20
0.000000
30
0.000000
11
0.000000
21
0.000000
31
0.000000
0
LINE
8
voronoi
10
0.000000
20
0.000000
30
0.000000
11
0.000000
21
0.000000
31
0.000000
0
LINE
8
voronoi
10
0.000000
20
0.000000
30
0.000000
11
0.000000
21
0.000000
31
0.000000
0
LINE
8
voronoi
10
0.000000
20
0.000000
30
0.000000
11
0.000000
21
0.000000
31
0.000000
0
LINE
8
voronoi
10
0.000000
20
0.000000
30
0.000000
11
0.000000
21
0.000000
31
0.000000
0
LINE
8
voronoi
10
0.000000
20
0.000000
30
0.000000
11
0.000000
21
0.000000
31
0.000000
0
LINE
8
voronoi
10
0.000000
20
0.000000
30
0.000000
11
0.000000
21
0.000000
31
0.000000
0
LINE
8
voronoi
10
0.000000
20
0.000000
30
0.000000
11
0.000000
21
0.000000
31
0.000000
0
LINE
8
voronoi
10
0.000000
20
0.000000
30
0.000000
11
0.000000
21
0.000000
31
0.000000
0
LINE
8
voronoi
10
0.000000
20
0.000000
30
0.000000
11
0.000000
21
0.000000
31
0.000000
0
LINE
8
voronoi
10
0.000000
20
0.000000
30
0.000000
11
0.000000
21
0.000000
31
0.000000
0
LINE
8
voronoi
10
0.000000
20
0.000000
30
0.000000
11
0.000000
21
0.000000
31
0.000000
0
LINE
8
voronoi
10
0.000000
20
0.000000
30
0.000000
11
0.000000
21
0.000000
31
0.000000
0
LINE
8
voronoi
10
0.000000
20
0.000000
30
0.000000
11
0.000000
21
0.000000
31
0.000000
0
LINE
8
voronoi
10
0.000000
20
0.000000
30
0.000000
11
0.000000
21
0.000000
31
0.000000
0
LINE
8
voronoi
10
0.000000
20
0.000000
30
0.000000
11
0.000000
21
0.000000
31
0.000000
0
LINE
8
voronoi
10
0.000000
20
0.000000
30
0.000000
11
0.000000
21
0.000000
31
0.000000
0
LINE
8
voronoi
10
0.000000
20
0.000000
30
0.000000
11
0.000000
21
0.000000
31
0.000000
0
LINE
8
voronoi
10
0.000000
20
0.000000
30
0.000000
11
0.000000
21
0.000000
31
0.000000
0
LINE
8
voronoi
10
0.000000
20
0.000000
30
0.000000
11
0.000000
21
0.000000
31
0.000000
0
LINE
8
voronoi
10
0.000000
20
0.000000
30
0.000000
11
0.000000
21
0.000000
31
0.000000
0
LINE
8
voronoi
10
0.000000
20
0.000000
30
0.000000
11
0.000000
21
0.000000
31
0.000000
0
LINE
8
voronoi
10
0.000000
20
0.000000
30
0.000000
11
0.000000
21
0.000000
31
0.000000
0
LINE
8
voronoi
10
0.000000
20
0.000000
30
0.000000
11
0.000000
21
0.000000
31
0.000000
0
LINE
8
voronoi
10
0.000000
20
0.000000
30
0.000000
11
0.000000
21
0.000000
31
0.000000
0
LINE
8
voronoi
10
0.000000
20
0.000000
30
0.000000
11
0.000000
21
0.000000
31
0.000000
0
LINE
8
voronoi
10
0.000000
20
0.000000
30
0.000000
11
0.000000
21
0.000000
31
0.000000
0
LINE
8
voronoi
10
0.000000
20
0.000000
30
0.000000
11
0.000000
21
0.000000
31
0.000000
0
LINE
8
voronoi
10
0.000000
20
0.000000
30
0.000000
11
0.000000
21
0.000000
31
0.000000
0
LINE
8
voronoi
10
0.000000
20
0.000000
30
0.000000
11
0.000000
21
0.000000
31
0.000000
0
LINE
8
voronoi
10
0.000000
20
0.000000
30
0.000000
11
0.000000
21
0.000000
31
0.000000
0
LINE
8
voronoi
10
0.000000
20
0.000000
30
0.000000
11
0.000000
21
0.000000
31
0.000000
0
LINE
8
voronoi
10
0.000000
20
0.000000
30
0.000000
11
0.000000
21
0.000000
31
0.000000
0
LINE
8
voronoi
10
0.000000
20
0.000000
30
0.000000
11
0.000000
21
0.000000
31
0.000000
0
LINE
8
voronoi
10
0.000000
20
0.000000
30
0.000000
11
0.000000
21
0.000000
31
0.000000
0
LINE
8
voronoi
10
0.000000
20
0.000000
30
0.000000
11
0.000000
21
0.000000
31
0.000000
0
LINE
8
voronoi
10
0.000000
20
0.000000
30
0.000000
11
0.000000
21
0.000000
31
0.000000
0
LINE
8
voronoi
10
0.000000
20
0.000000
30
0.000000
11
0.000000
21
0.000000
31
0.000000
0
LINE
8
voronoi
10
0.000000
20
0.000000
30
0.000000
11
0.000000
21
0.000000
31
0.000000
0
LINE
8
voronoi
10
0.000000
20
0.000000
30
0.000000
11
0.000000
21
0.000000
31
0.000000
0
LINE
8
voronoi
10
0.000000
20
0.000000
30
0.000000
11
0.000000
21
0.000000
31
0.000000
0
LINE
8
voronoi
10
0.000000
20
0.000000
30
0.000000
11
0.000000
21
0.000000
31
0.000000
0
LINE
8
voronoi
10
0.000000
20
0.000000
30
0.000000
11
0.000000
21
0.000000
31
0.000000
0
LINE
8
voronoi
10
0.000000
20
0.000000
30
0.000000
11
0.000000
21
0.000000
31
0.000000
0
LINE
8
voronoi
10
0.000000
20
0.000000
30
0.000000
11
0.000000
21
0.000000
31
0.000000
0
LINE
8
voronoi
10
0.000000
20
0.000000
30
0.000000
11
0.000000
21
0.000000
31
0.000000
0
LINE
8
voronoi
10
0.000000
20
0.000000
30
0.000000
11
0.000000
21
0.000000
31
0.000000
0
LINE
8
voronoi
10
0.000000
20
0.000000
30
0.000000
11
0.000000
21
0.000000
31
0.000000
0
LINE
8
voronoi
10
0.000000
20
0.000000
30
0.000000
11
0.000000
21
0.000000
31
0.000000
0
LINE
8
voronoi
10
0.000000
20
0.000000
30
0.000000
11
0.000000
21
0.000000
31
0.000000
0
LINE
8
voronoi
10
0.000000
20
0.000000
30
0.000000
11
0.000000
21
0.000000
31
0.000000
0
LINE
8
voronoi
10
0.000000
20
0.000000
30
0.000000
11
0.000000
21
0.000000
31
0.000000
0
LINE
8
voronoi
10
0.000000
20
0.000000
30
0.000000
11
0.000000
21
0.000000
31
0.000000
0
LINE
8
voronoi
10
0.000000
20
0.000000
30
0.000000
11
0.000000
21
0.000000
31
0.000000
0
LINE
8
voronoi
10
0.000000
20
0.000000
30
0.000000
11
0.000000
21
0.000000
31
0.000000
0
LINE
8
voronoi
10
0.000000
20
0.000000
30
0.000000
11
0.000000
21
0.000000
31
0.000000
0
LINE
8
voronoi
10
0.000000
20
0.000000
30
0.000000
11
0.000000
21
0.000000
31
0.000000
0
LINE
8
voronoi
10
0.000000
20
0.000000
30
0.000000
11
0.000000
21
0.000000
31
0.000000
0
LINE
8
voronoi
10
0.000000
20
0.000000
30
0.000000
11
0.000000
21
0.000000
31
0.000000
0
LINE
8
voronoi
10
0.000000
20
0.000000
30
0.000000
11
0.000000
21
0.000000
31
0.000000
0
LINE
8
voronoi
10
0.000000
20
0.000000
30
0.000000
11
0.000000
21
0.000000
31
0.000000
0
LINE
8
voronoi
10
0.000000
20
0.000000
30
0.000000
11
0.000000
21
0.000000
31
0.000000
0
LINE
8
voronoi
10
0.000000
20
0.000000
30
0.000000
11
0.000000
21
0.000000
31
0.000000
0
LINE
8
voronoi
10
0.000000
20
0.000000
30
0.000000
11
0.000000
21
0.000000
31
0.000000
0
LINE
8
voronoi
10
0.000000
20
0.000000
30
0.000000
11
0.000000
21
0.000000
31
0.000000
0
LINE
8
voronoi
10
0.000000
20
0.000000
30
0.000000
11
0.000000
21
0.000000
31
0.000000
0
LINE
8
voronoi
10
0.000000
20
0.000000
30
0.000000
11
0.000000
21
0.000000
31
0.000000
0
LINE
8
voronoi
10
0.000000
20
0.000000
30
0.000000
11
0.000000
21
0.000000
31
0.000000
0
LINE
8
voronoi
10
0.000000
20
0.000000
30
0.000000
11
0.000000
21
0.000000
31
0.000000
0
LINE
8
voronoi
10
0.000000
20
0.000000
30
0.000000
11
0.000000
21
0.000000
31
0.000000
0
LINE
8
voronoi
10
0.000000
20
0.000000
30
0.000000
11
0.000000
21
0.000000
31
0.000000
0
LINE
8
voronoi
10
0.000000
20
0.000000
30
0.000000
11
0.000000
21
0.000000
31
0.000000
0
LINE
8
voronoi
10
0.000000
20
0.000000
30
0.000000
11
0.000000
21
0.000000
31
0.000000
0
LINE
8
voronoi
10
0.000000
20
0.000000
30
0.000000
11
0.000000
21
0.000000
31
0.000000
0
LINE
8
voronoi
10
0.000000
20
0.000000
30
0.000000
11
0.000000
21
0.000000
31
0.000000
0
LINE
8
voronoi
10
0.000000
20
0.000000
30
0.000000
11
0.000000
21
0.000000
31
0.000000
0
LINE
8
voronoi
10
0.000000
20
0.000000
30
0.000000
11
0.000000
21
0.000000
31
0.000000
0
LINE
8
voronoi
10
0.000000
20
0.000000
30
0.000000
11
0.000000
21
0.000000
31
0.000000
0
LINE
8
voronoi
10
0.000000
20
0.000000
30
0.000000
11
0.000000
21
0.000000
31
0.000000
0
LINE
8
voronoi
10
0.000000
20
0.000000
30
0.000000
11
0.000000
21
0.000000
31
0.000000
0
LINE
8
voronoi
10
0.000000
20
0.000000
30
0.000000
11
0.000000
21
0.000000
31
0.000000
0
LINE
8
voronoi
10
0.000000
20
0.000000
30
0.000000
11
0.000000
21
0.000000
31
0.000000
0
LINE
8
voronoi
10
0.000000
20
0.000000
30
0.000000
11
0.000000
21
0.000000
31
0.000000
0
LINE
8
voronoi
10
0.000000
20
0.000000
30
0.000000
11
0.000000
21
0.000000
31
0.000000
0
LINE
8
voronoi
10
0.000000
20
0.000000
30
0.000000
11
0.000000
21
0.000000
31
0.000000
0
LINE
8
voronoi
10
0.000000
20
0.000000
30
0.000000
11
0.000000
21
0.000000
31
0.000000
0
LINE
8
voronoi
10
0.000000
20
0.000000
30
0.000000
11
0.000000
21
0.000000
31
0.000000
0
LINE
8
voronoi
10
0.000000
20
0.000000
30
0.000000
11
0.000000
21
0.000000
31
0.000000
0
LINE
8
voronoi
10
0.000000
20
0.000000
30
0.000000
11
0.000000
21
0.000000
31
0.000000
0
LINE
8
voronoi
10
0.000000
20
0.000000
30
0.000000
11
0.000000
21
0.000000
31
0.000000
0
LINE
8
voronoi
10
0.000000
20
0.000000
30
0.000000
11
0.000000
21
0.000000
31
0.000000
0
LINE
8
voronoi
10
0.000000
20
0.000000
30
0.000000
11
0.000000
21
0.000000
31
0.000000
0
LINE
8
voronoi
10
0.000000
20
0.000000
30
0.000000
11
0.000000
21
0.000000
31
0.000000
0
LINE
8
voronoi
10
0.000000
20
0.000000
30
0.000000
11
0.000000
21
0.000000
31
0.000000
0
LINE
8
voronoi
10
0.000000
20
0.000000
30
0.000000
11
0.000000
21
0.000000
31
0.000000
0
LINE
8
voronoi
10
0.000000
20
0.000000
30
0.000000
11
0.000000
21
0.000000
31
0.000000
0
LINE
8
voronoi
10
0.000000
20
0.000000
30
0.000000
11
0.000000
21
0.000000
31
0.000000
0
LINE
8
voronoi
10
0.000000
20
0.000000
30
0.000000
11
0.000000
21
0.000000
31
0.000000
0
LINE
8
voronoi
10
0.000000
20
0.000000
30
0.000000
11
0.000000
21
0.000000
31
0.000000
0
LINE
8
voronoi
10
0.000000
20
0.000000
30
0.000000
11
0.000000
21
0.000000
31
0.000000
0
LINE
8
voronoi
10
0.000000
20
0.000000
30
0.000000
11
0.000000
21
0.000000
31
0.000000
0
LINE
8
voronoi
10
0.000000
20
0.000000
30
0.000000
11
0.000000
21
0.000000
31
0.000000
0
LINE
8
voronoi
10
0.000000
20
0.000000
30
0.000000
11
0.000000
21
0.000000
31
0.000000
0
LINE
8
voronoi
10
0.000000
20
0.000000
30
0.000000
11
0.000000
21
0.000000
31
0.000000
0
LINE
8
voronoi
10
0.000000
20
0.000000
30
0.000000
11
0.000000
21
0.000000
31
0.000000
0
LINE
8
voronoi
10
0.000000
20
0.000000
30
0.000000
11
0.000000
21
0.000000
31
0.000000
0
LINE
8
voronoi
10
0.000000
20
0.000000
30
0.000000
11
0.000000
21
0.000000
31
0.000000
0
LINE
8
voronoi
10
0.000000
20
0.000000
30
0.000000
11
0.000000
21
0.000000
31
0.000000
0
LINE
8
voronoi
10
0.000000
20
0.000000
30
0.000000
11
0.000000
21
0.000000
31
0.000000
0
LINE
8
voronoi
10
0.000000
20
0.000000
30
0.000000
11
0.000000
21
0.000000
31
0.000000
0
LINE
8
voronoi
10
0.000000
20
0.000000
30
0.000000
11
0.000000
21
0.000000
31
0.000000
0
LINE
8
voronoi
10
0.000000
20
0.000000
30
0.000000
11
0.000000
21
0.000000
31
0.000000
0
LINE
8
voronoi
10
0.000000
20
0.000000
30
0.000000
11
0.000000
21
0.000000
31
0.000000
0
LINE
8
voronoi
10
0.000000
20
0.000000
30
0.000000
11
0.000000
21
0.000000
31
0.000000
0
LINE
8
voronoi
10
0.000000
20
0.000000
30
0.000000
11
0.000000
21
0.000000
31
0.000000
0
LINE
8
voronoi
10
0.000000
20
0.000000
30
0.000000
11
0.000000
21
0.000000
31
0.000000
0
LINE
8
voronoi
10
0.000000
20
0.000000
30
0.000000
11
0.000000
21
0.000000
31
0.000000
0
LINE
8
voronoi
10
0.000000
20
0.000000
30
0.000000
11
0.000000
21
0.000000
31
0.000000
0
LINE
8
voronoi
10
0.000000
20
0.000000
30
0.000000
11
0.000000
21
0.000000
31
0.000000
0
LINE
8
voronoi
10
0.000000
20
0.000000
30
0.000000
11
0.000000
21
0.000000
31
0.000000
0
LINE
8
voronoi
10
0.000000
20
0.000000
30
0.000000
11
0.000000
21
0.000000
31
0.000000
0
LINE
8
voronoi
10
0.000000
20
0.000000
30
0.000000
11
0.000000
21
0.000000
31
0.000000
0
LINE
8
voronoi
10
0.000000
20
0.000000
30
0.000000
11
0.000000
21
0.000000
31
0.000000
0
LINE
8
voronoi
10
0.000000
20
0.000000
30
0.000000
11
0.000000
21
0.000000
31
0.000000
0
LINE
8
voronoi
10
0.000000
20
0.000000
30
0.000000
11
0.000000
21
0.000000
31
0.000000
0
LINE
8
voronoi
10
0.000000
20
0.000000
30
0.000000
11
0.000000
21
0.000000
31
0.000000
0
LINE
8
voronoi
10
0.000000
20
0.000000
30
0.000000
11
0.000000
21
0.000000
31
0.000000
0
LINE
8
voronoi
10
0.000000
20
0.000000
30
0.000000
11
0.000000
21
0.000000
31
0.000000
0
LINE
8
voronoi
10
0.000000
20
0.000000
30
0.000000
11
0.000000
21
0.000000
31
0.000000
0
LINE
8
voronoi
10
0.000000
20
0.000000
30
0.000000
11
0.000000
21
0.000000
31
0.000000
0
LINE
8
voronoi
10
0.000000
20
0.000000
30
0.000000
11
0.000000
21
0.000000
31
0.000000
0
LINE
8
voronoi
10
0.000000
20
0.000000
30
0.000000
11
0.000000
21
0.000000
31
0.000000
0
LINE
8
voronoi
10
0.000000
20
0.000000
30
0.000000
11
0.000000
21
0.000000
31
0.000000
0
LINE
8
voronoi
10
0.000000
20
0.000000
30
0.000000
11
0.000000
21
0.000000
31
0.000000
0
LINE
8
voronoi
10
0.000000
20
0.000000
30
0.000000
11
0.000000
21
0.000000
31
0.000000
0
LINE
8
voronoi
10
0.000000
20
0.000000
30
0.000000
11
0.000000
21
0.000000
31
0.000000
0
LINE
8
voronoi
10
0.000000
20
0.000000
30
0.000000
11
0.000000
21
0.000000
31
0.000000
0
LINE
8
voronoi
10
0.000000
20
0.000000
30
0.000000
11
0.000000
21
0.000000
31
0.000000
0
LINE
8
voronoi
10
0.000000
20
0.000000
30
0.000000
11
0.000000
21
0.000000
31
0.000000
0
LINE
8
voronoi
10
0.000000
20
0.000000
30
0.000000
11
0.000000
21
0.000000
31
0.000000
0
LINE
8
voronoi
10
0.000000
20
0.000000
30
0.000000
11
0.000000
21
0.000000
31
0.000000
0
LINE
8
voronoi
10
0.000000
20
0.000000
30
0.000000
11
0.000000
21
0.000000
31
0.000000
0
LINE
8
voronoi
10
0.000000
20
0.000000
30
0.000000
11
0.000000
21
0.000000
31
0.000000
0
LINE
8
voronoi
10
0.000000
20
0.000000
30
0.000000
11
0.000000
21
0.000000
31
0.000000
0
LINE
8
voronoi
10
0.000000
20
0.000000
30
0.000000
11
0.000000
21
0.000000
31
0.000000
0
LINE
8
voronoi
10
0.000000
20
0.000000
30
0.000000
11
0.000000
21
0.000000
31
0.000000
0
LINE
8
voronoi
10
0.000000
20
0.000000
30
0.000000
11
0.000000
21
0.000000
31
0.000000
0
LINE
8
voronoi
10
0.000000
20
0.000000
30
0.000000
11
0.000000
21
0.000000
31
0.000000
0
LINE
8
voronoi
10
0.000000
20
0.000000
30
0.000000
11
0.000000
21
0.000000
31
0.000000
0
LINE
8
voronoi
10
0.000000
20
0.000000
30
0.000000
11
0.000000
21
0.000000
31
0.000000
0
LINE
8
voronoi
10
0.000000
20
0.000000
30
0.000000
11
0.000000
21
0.000000
31
0.000000
0
LINE
8
voronoi
10
0.000000
20
0.000000
30
0.000000
11
0.000000
21
0.000000
31
0.000000
0
LINE
8
voronoi
10
0.000000
20
0.000000
30
0.000000
11
0.000000
21
0.000000
31
0.000000
0
LINE
8
voronoi
10
0.000000
20
0.000000
30
0.000000
11
0.000000
21
0.000000
31
0.000000
0
LINE
8
voronoi
10
0.000000
20
0.000000
30
0.000000
11
0.000000
21
0.000000
31
0.000000
0
LINE
8
voronoi
10
0.000000
20
0.000000
30
0.000000
11
0.000000
21
0.000000
31
0.000000
0
LINE
8
voronoi
10
0.000000
20
0.000000
30
0.000000
11
0.000000
21
0.000000
31
0.000000
0
LINE
8
voronoi
10
0.000000
20
0.000000
30
0.000000
11
0.000000
21
0.000000
31
0.000000
0
LINE
8
voronoi
10
0.000000
20
0.000000
30
0.000000
11
0.000000
21
0.000000
31
0.000000
0
LINE
8
voronoi
10
0.000000
20
0.000000
30
0.000000
11
0.000000
21
0.000000
31
0.000000
0
ENDSEC
0
EOF
